<svg width="24" height="24" viewBox="0 0 24 24" fill="none" xmlns="http://www.w3.org/2000/svg">
<g clip-path="url(#clip0_27_1055)">
<path d="M0.519355 11.8564C0.518793 13.8728 1.04947 15.8418 2.05854 17.5772L0.422852 23.5067L6.5346 21.9156C8.22504 22.8293 10.119 23.308 12.0437 23.3082H12.0488C18.4025 23.3082 23.5746 18.1749 23.5774 11.8654C23.5786 8.80798 22.3804 5.93301 20.2036 3.77003C18.0271 1.60724 15.1325 0.415519 12.0483 0.414124C5.6938 0.414124 0.522072 5.54715 0.519449 11.8564" fill="url(#paint0_linear_27_1055)"/>
<path d="M0.107575 11.8527C0.106919 13.9417 0.656613 15.981 1.70166 17.7786L0.00732422 23.9207L6.33822 22.2726C8.08259 23.2168 10.0466 23.7147 12.045 23.7154H12.0502C18.6319 23.7154 23.9898 18.3975 23.9926 11.8621C23.9937 8.69488 22.7525 5.71656 20.4979 3.47609C18.243 1.23591 15.2448 0.00130233 12.0502 0C5.46735 0 0.110199 5.31721 0.107575 11.8527ZM3.87785 17.469L3.64147 17.0965C2.64777 15.5277 2.12328 13.7149 2.12402 11.8534C2.12609 6.4213 6.57873 2.00186 12.0539 2.00186C14.7054 2.00298 17.1973 3.02921 19.0715 4.89116C20.9456 6.7533 21.9769 9.22865 21.9762 11.8614C21.9738 17.2935 17.5211 21.7135 12.0502 21.7135H12.0462C10.2649 21.7126 8.51779 21.2376 6.99416 20.34L6.63157 20.1265L2.87469 21.1045L3.87785 17.469Z" fill="url(#paint1_linear_27_1055)"/>
<path d="M9.06535 6.89746C8.8418 6.40416 8.60654 6.39421 8.39395 6.38556C8.21987 6.37811 8.02087 6.37867 7.82205 6.37867C7.62305 6.37867 7.29972 6.453 7.02642 6.74928C6.75284 7.04583 5.98193 7.76249 5.98193 9.22007C5.98193 10.6776 7.05125 12.0864 7.20031 12.2843C7.34956 12.4817 9.26464 15.5686 12.2977 16.7562C14.8184 17.743 15.3313 17.5468 15.8784 17.4973C16.4256 17.448 17.6439 16.7808 17.8925 16.089C18.1413 15.3973 18.1413 14.8043 18.0667 14.6804C17.9921 14.557 17.7931 14.4829 17.4947 14.3348C17.1963 14.1867 15.7291 13.4698 15.4556 13.371C15.1821 13.2722 14.9832 13.2229 14.7842 13.5195C14.5852 13.8157 14.0137 14.4829 13.8395 14.6804C13.6656 14.8785 13.4914 14.9031 13.1931 14.755C12.8945 14.6063 11.9335 14.2938 10.7933 13.2846C9.90624 12.4993 9.30736 11.5296 9.13328 11.2329C8.9592 10.9367 9.11464 10.7762 9.26426 10.6285C9.39834 10.4958 9.56277 10.2826 9.71211 10.1096C9.8609 9.93663 9.91055 9.81318 10.0101 9.6156C10.1096 9.41783 10.0598 9.24481 9.98532 9.09663C9.91055 8.94844 9.33069 7.48323 9.06535 6.89746Z" fill="white"/>
</g>
<defs>
<linearGradient id="paint0_linear_27_1055" x1="1158.15" y1="2309.67" x2="1158.15" y2="0.414124" gradientUnits="userSpaceOnUse">
<stop stop-color="#1FAF38"/>
<stop offset="1" stop-color="#60D669"/>
</linearGradient>
<linearGradient id="paint1_linear_27_1055" x1="1199.27" y1="2392.07" x2="1199.27" y2="0" gradientUnits="userSpaceOnUse">
<stop stop-color="#F9F9F9"/>
<stop offset="1" stop-color="white"/>
</linearGradient>
<clipPath id="clip0_27_1055">
<rect width="24" height="24" fill="white"/>
</clipPath>
</defs>
</svg>
